<mxfile host="app.diagrams.net" modified="2023-10-30T20:42:27.752Z" agent="Mozilla/5.0 (Windows NT 10.0; Win64; x64) AppleWebKit/537.36 (KHTML, like Gecko) Chrome/118.0.0.0 Safari/537.36" etag="ia8E60dfkVjdKCBoa-Qt" version="22.0.8" type="device">
  <diagram name="PÃ¡gina-1" id="zgUjxaNJ1sfy_vUU1lLM">
    <mxGraphModel dx="2501" dy="756" grid="1" gridSize="10" guides="1" tooltips="1" connect="1" arrows="1" fold="1" page="1" pageScale="1" pageWidth="827" pageHeight="1169" math="0" shadow="0">
      <root>
        <mxCell id="0" />
        <mxCell id="1" parent="0" />
        <mxCell id="R-REluBi3tKabkP6cz9y-1" value="PERSONA" style="whiteSpace=wrap;html=1;align=center;" parent="1" vertex="1">
          <mxGeometry x="414" y="248" width="70" height="30" as="geometry" />
        </mxCell>
        <mxCell id="R-REluBi3tKabkP6cz9y-2" value="EMPLEADO" style="whiteSpace=wrap;html=1;align=center;" parent="1" vertex="1">
          <mxGeometry x="359" y="379" width="70" height="30" as="geometry" />
        </mxCell>
        <mxCell id="R-REluBi3tKabkP6cz9y-3" value="CLIENTE" style="whiteSpace=wrap;html=1;align=center;" parent="1" vertex="1">
          <mxGeometry x="460" y="379" width="70" height="30" as="geometry" />
        </mxCell>
        <mxCell id="R-REluBi3tKabkP6cz9y-4" value="PRODUCTO" style="whiteSpace=wrap;html=1;align=center;" parent="1" vertex="1">
          <mxGeometry x="405.75" y="588.5" width="70" height="30" as="geometry" />
        </mxCell>
        <mxCell id="R-REluBi3tKabkP6cz9y-6" value="PROVEEDOR" style="whiteSpace=wrap;html=1;align=center;" parent="1" vertex="1">
          <mxGeometry x="-20" y="243" width="80" height="30" as="geometry" />
        </mxCell>
        <mxCell id="R-REluBi3tKabkP6cz9y-7" value="INGREDIENTE" style="whiteSpace=wrap;html=1;align=center;" parent="1" vertex="1">
          <mxGeometry x="-25" y="585" width="90" height="30" as="geometry" />
        </mxCell>
        <mxCell id="R-REluBi3tKabkP6cz9y-8" value="ORDEN DE COMPRA" style="whiteSpace=wrap;html=1;align=center;" parent="1" vertex="1">
          <mxGeometry x="159" y="329" width="70" height="30" as="geometry" />
        </mxCell>
        <mxCell id="R-REluBi3tKabkP6cz9y-9" value="PEDIDO" style="whiteSpace=wrap;html=1;align=center;" parent="1" vertex="1">
          <mxGeometry x="665.75" y="470" width="70" height="30" as="geometry" />
        </mxCell>
        <mxCell id="R-REluBi3tKabkP6cz9y-10" value="OFERTA" style="whiteSpace=wrap;html=1;align=center;" parent="1" vertex="1">
          <mxGeometry x="191.5" y="489" width="70" height="30" as="geometry" />
        </mxCell>
        <mxCell id="R-REluBi3tKabkP6cz9y-12" value="BOTE" style="whiteSpace=wrap;html=1;align=center;" parent="1" vertex="1">
          <mxGeometry x="367.25" y="725" width="70" height="30" as="geometry" />
        </mxCell>
        <mxCell id="R-REluBi3tKabkP6cz9y-13" value="PALETA" style="whiteSpace=wrap;html=1;align=center;" parent="1" vertex="1">
          <mxGeometry x="452" y="725" width="70" height="30" as="geometry" />
        </mxCell>
        <mxCell id="R-REluBi3tKabkP6cz9y-16" value="PRODUCEN" style="shape=rhombus;perimeter=rhombusPerimeter;whiteSpace=wrap;html=1;align=center;" parent="1" vertex="1">
          <mxGeometry x="370" y="476" width="92.5" height="40" as="geometry" />
        </mxCell>
        <mxCell id="R-REluBi3tKabkP6cz9y-17" value="" style="triangle;whiteSpace=wrap;html=1;rotation=-90;" parent="1" vertex="1">
          <mxGeometry x="434" y="314" width="30" height="40" as="geometry" />
        </mxCell>
        <mxCell id="R-REluBi3tKabkP6cz9y-18" value="D" style="text;html=1;align=center;verticalAlign=middle;resizable=0;points=[];autosize=1;strokeColor=none;fillColor=none;" parent="1" vertex="1">
          <mxGeometry x="433.25" y="324" width="30" height="30" as="geometry" />
        </mxCell>
        <mxCell id="R-REluBi3tKabkP6cz9y-20" value="" style="triangle;whiteSpace=wrap;html=1;rotation=-90;" parent="1" vertex="1">
          <mxGeometry x="425.25" y="655" width="30" height="40" as="geometry" />
        </mxCell>
        <mxCell id="R-REluBi3tKabkP6cz9y-21" value="D" style="text;html=1;align=center;verticalAlign=middle;resizable=0;points=[];autosize=1;strokeColor=none;fillColor=none;rotation=0;" parent="1" vertex="1">
          <mxGeometry x="425.25" y="665" width="30" height="30" as="geometry" />
        </mxCell>
        <mxCell id="R-REluBi3tKabkP6cz9y-23" value="PROVEE" style="shape=rhombus;perimeter=rhombusPerimeter;whiteSpace=wrap;html=1;align=center;" parent="1" vertex="1">
          <mxGeometry x="-15" y="384" width="70" height="32" as="geometry" />
        </mxCell>
        <mxCell id="R-REluBi3tKabkP6cz9y-24" value="TIENE" style="shape=rhombus;perimeter=rhombusPerimeter;whiteSpace=wrap;html=1;align=center;" parent="1" vertex="1">
          <mxGeometry x="191.5" y="590" width="60" height="35" as="geometry" />
        </mxCell>
        <mxCell id="R-REluBi3tKabkP6cz9y-25" value="RECIBE" style="shape=rhombus;perimeter=rhombusPerimeter;whiteSpace=wrap;html=1;align=center;" parent="1" vertex="1">
          <mxGeometry x="159" y="238" width="92.5" height="40" as="geometry" />
        </mxCell>
        <mxCell id="R-REluBi3tKabkP6cz9y-26" value="GENERA" style="shape=rhombus;perimeter=rhombusPerimeter;whiteSpace=wrap;html=1;align=center;" parent="1" vertex="1">
          <mxGeometry x="284.75" y="318" width="82.5" height="30" as="geometry" />
        </mxCell>
        <mxCell id="R-REluBi3tKabkP6cz9y-29" value="CONFECCIONA" style="shape=rhombus;perimeter=rhombusPerimeter;whiteSpace=wrap;html=1;align=center;" parent="1" vertex="1">
          <mxGeometry x="487.25" y="462" width="111.25" height="32" as="geometry" />
        </mxCell>
        <mxCell id="R-REluBi3tKabkP6cz9y-30" value="" style="endArrow=none;html=1;rounded=0;" parent="1" source="R-REluBi3tKabkP6cz9y-1" target="R-REluBi3tKabkP6cz9y-17" edge="1">
          <mxGeometry relative="1" as="geometry">
            <mxPoint x="419" y="509" as="sourcePoint" />
            <mxPoint x="449" y="309" as="targetPoint" />
          </mxGeometry>
        </mxCell>
        <mxCell id="R-REluBi3tKabkP6cz9y-31" value="" style="endArrow=none;html=1;rounded=0;" parent="1" source="R-REluBi3tKabkP6cz9y-17" target="R-REluBi3tKabkP6cz9y-2" edge="1">
          <mxGeometry relative="1" as="geometry">
            <mxPoint x="419" y="436" as="sourcePoint" />
            <mxPoint x="579" y="436" as="targetPoint" />
          </mxGeometry>
        </mxCell>
        <mxCell id="R-REluBi3tKabkP6cz9y-32" value="" style="endArrow=none;html=1;rounded=0;" parent="1" source="R-REluBi3tKabkP6cz9y-17" target="R-REluBi3tKabkP6cz9y-3" edge="1">
          <mxGeometry relative="1" as="geometry">
            <mxPoint x="419" y="436" as="sourcePoint" />
            <mxPoint x="579" y="436" as="targetPoint" />
          </mxGeometry>
        </mxCell>
        <mxCell id="R-REluBi3tKabkP6cz9y-33" value="" style="endArrow=none;html=1;rounded=0;" parent="1" source="R-REluBi3tKabkP6cz9y-2" target="R-REluBi3tKabkP6cz9y-16" edge="1">
          <mxGeometry relative="1" as="geometry">
            <mxPoint x="419" y="436" as="sourcePoint" />
            <mxPoint x="579" y="436" as="targetPoint" />
          </mxGeometry>
        </mxCell>
        <mxCell id="R-REluBi3tKabkP6cz9y-34" value="" style="endArrow=none;html=1;rounded=0;" parent="1" source="R-REluBi3tKabkP6cz9y-16" target="R-REluBi3tKabkP6cz9y-4" edge="1">
          <mxGeometry relative="1" as="geometry">
            <mxPoint x="419" y="436" as="sourcePoint" />
            <mxPoint x="579" y="436" as="targetPoint" />
          </mxGeometry>
        </mxCell>
        <mxCell id="R-REluBi3tKabkP6cz9y-37" value="" style="endArrow=none;html=1;rounded=0;" parent="1" source="R-REluBi3tKabkP6cz9y-24" target="R-REluBi3tKabkP6cz9y-4" edge="1">
          <mxGeometry relative="1" as="geometry">
            <mxPoint x="419" y="436" as="sourcePoint" />
            <mxPoint x="579" y="436" as="targetPoint" />
          </mxGeometry>
        </mxCell>
        <mxCell id="R-REluBi3tKabkP6cz9y-38" value="" style="endArrow=none;html=1;rounded=0;" parent="1" source="R-REluBi3tKabkP6cz9y-10" target="R-REluBi3tKabkP6cz9y-55" edge="1">
          <mxGeometry relative="1" as="geometry">
            <mxPoint x="419" y="436" as="sourcePoint" />
            <mxPoint x="319" y="496" as="targetPoint" />
          </mxGeometry>
        </mxCell>
        <mxCell id="R-REluBi3tKabkP6cz9y-39" value="" style="endArrow=none;html=1;rounded=0;" parent="1" source="R-REluBi3tKabkP6cz9y-10" target="R-REluBi3tKabkP6cz9y-56" edge="1">
          <mxGeometry relative="1" as="geometry">
            <mxPoint x="419" y="436" as="sourcePoint" />
            <mxPoint x="239" y="446" as="targetPoint" />
          </mxGeometry>
        </mxCell>
        <mxCell id="R-REluBi3tKabkP6cz9y-40" value="" style="endArrow=none;html=1;rounded=0;" parent="1" source="R-REluBi3tKabkP6cz9y-8" target="R-REluBi3tKabkP6cz9y-26" edge="1">
          <mxGeometry relative="1" as="geometry">
            <mxPoint x="419" y="436" as="sourcePoint" />
            <mxPoint x="579" y="436" as="targetPoint" />
          </mxGeometry>
        </mxCell>
        <mxCell id="R-REluBi3tKabkP6cz9y-41" value="CONTIENE" style="shape=rhombus;perimeter=rhombusPerimeter;whiteSpace=wrap;html=1;align=center;" parent="1" vertex="1">
          <mxGeometry x="90" y="435" width="80" height="37" as="geometry" />
        </mxCell>
        <mxCell id="R-REluBi3tKabkP6cz9y-42" value="" style="endArrow=none;html=1;rounded=0;" parent="1" source="R-REluBi3tKabkP6cz9y-8" target="R-REluBi3tKabkP6cz9y-41" edge="1">
          <mxGeometry relative="1" as="geometry">
            <mxPoint x="419" y="436" as="sourcePoint" />
            <mxPoint x="579" y="436" as="targetPoint" />
          </mxGeometry>
        </mxCell>
        <mxCell id="R-REluBi3tKabkP6cz9y-43" value="" style="endArrow=none;html=1;rounded=0;entryX=0.811;entryY=-0.016;entryDx=0;entryDy=0;entryPerimeter=0;" parent="1" source="R-REluBi3tKabkP6cz9y-41" target="R-REluBi3tKabkP6cz9y-7" edge="1">
          <mxGeometry relative="1" as="geometry">
            <mxPoint x="419" y="436" as="sourcePoint" />
            <mxPoint x="579" y="436" as="targetPoint" />
          </mxGeometry>
        </mxCell>
        <mxCell id="R-REluBi3tKabkP6cz9y-44" value="" style="endArrow=none;html=1;rounded=0;" parent="1" source="R-REluBi3tKabkP6cz9y-26" target="R-REluBi3tKabkP6cz9y-2" edge="1">
          <mxGeometry relative="1" as="geometry">
            <mxPoint x="419" y="436" as="sourcePoint" />
            <mxPoint x="579" y="436" as="targetPoint" />
          </mxGeometry>
        </mxCell>
        <mxCell id="R-REluBi3tKabkP6cz9y-45" value="" style="endArrow=none;html=1;rounded=0;" parent="1" source="R-REluBi3tKabkP6cz9y-25" target="R-REluBi3tKabkP6cz9y-8" edge="1">
          <mxGeometry relative="1" as="geometry">
            <mxPoint x="419" y="436" as="sourcePoint" />
            <mxPoint x="579" y="436" as="targetPoint" />
          </mxGeometry>
        </mxCell>
        <mxCell id="R-REluBi3tKabkP6cz9y-46" value="" style="endArrow=none;html=1;rounded=0;" parent="1" source="R-REluBi3tKabkP6cz9y-6" target="R-REluBi3tKabkP6cz9y-25" edge="1">
          <mxGeometry relative="1" as="geometry">
            <mxPoint x="419" y="459" as="sourcePoint" />
            <mxPoint x="579" y="459" as="targetPoint" />
          </mxGeometry>
        </mxCell>
        <mxCell id="R-REluBi3tKabkP6cz9y-47" value="" style="endArrow=none;html=1;rounded=0;" parent="1" source="R-REluBi3tKabkP6cz9y-6" target="R-REluBi3tKabkP6cz9y-23" edge="1">
          <mxGeometry relative="1" as="geometry">
            <mxPoint x="419" y="436" as="sourcePoint" />
            <mxPoint x="579" y="436" as="targetPoint" />
          </mxGeometry>
        </mxCell>
        <mxCell id="R-REluBi3tKabkP6cz9y-48" value="" style="endArrow=none;html=1;rounded=0;" parent="1" source="R-REluBi3tKabkP6cz9y-23" target="R-REluBi3tKabkP6cz9y-7" edge="1">
          <mxGeometry relative="1" as="geometry">
            <mxPoint x="419" y="436" as="sourcePoint" />
            <mxPoint x="579" y="436" as="targetPoint" />
          </mxGeometry>
        </mxCell>
        <mxCell id="R-REluBi3tKabkP6cz9y-49" value="" style="endArrow=none;html=1;rounded=0;" parent="1" source="R-REluBi3tKabkP6cz9y-3" target="R-REluBi3tKabkP6cz9y-29" edge="1">
          <mxGeometry relative="1" as="geometry">
            <mxPoint x="419" y="436" as="sourcePoint" />
            <mxPoint x="579" y="436" as="targetPoint" />
          </mxGeometry>
        </mxCell>
        <mxCell id="R-REluBi3tKabkP6cz9y-50" value="" style="endArrow=none;html=1;rounded=0;" parent="1" source="R-REluBi3tKabkP6cz9y-29" target="R-REluBi3tKabkP6cz9y-9" edge="1">
          <mxGeometry relative="1" as="geometry">
            <mxPoint x="640.0037320196406" y="482.0379723562112" as="sourcePoint" />
            <mxPoint x="355.36" y="525.5" as="targetPoint" />
          </mxGeometry>
        </mxCell>
        <mxCell id="R-REluBi3tKabkP6cz9y-51" value="" style="endArrow=none;html=1;rounded=0;" parent="1" source="R-REluBi3tKabkP6cz9y-4" target="R-REluBi3tKabkP6cz9y-20" edge="1">
          <mxGeometry relative="1" as="geometry">
            <mxPoint x="419" y="436" as="sourcePoint" />
            <mxPoint x="579" y="436" as="targetPoint" />
          </mxGeometry>
        </mxCell>
        <mxCell id="R-REluBi3tKabkP6cz9y-52" value="" style="endArrow=none;html=1;rounded=0;" parent="1" source="R-REluBi3tKabkP6cz9y-20" target="R-REluBi3tKabkP6cz9y-13" edge="1">
          <mxGeometry relative="1" as="geometry">
            <mxPoint x="360.25" y="573.5" as="sourcePoint" />
            <mxPoint x="520.25" y="573.5" as="targetPoint" />
          </mxGeometry>
        </mxCell>
        <mxCell id="R-REluBi3tKabkP6cz9y-53" value="" style="endArrow=none;html=1;rounded=0;" parent="1" source="R-REluBi3tKabkP6cz9y-20" target="R-REluBi3tKabkP6cz9y-12" edge="1">
          <mxGeometry relative="1" as="geometry">
            <mxPoint x="360.25" y="573.5" as="sourcePoint" />
            <mxPoint x="520.25" y="573.5" as="targetPoint" />
          </mxGeometry>
        </mxCell>
        <mxCell id="R-REluBi3tKabkP6cz9y-54" value="" style="endArrow=none;html=1;rounded=0;" parent="1" source="R-REluBi3tKabkP6cz9y-7" target="R-REluBi3tKabkP6cz9y-24" edge="1">
          <mxGeometry relative="1" as="geometry">
            <mxPoint x="419" y="436" as="sourcePoint" />
            <mxPoint x="579" y="436" as="targetPoint" />
          </mxGeometry>
        </mxCell>
        <mxCell id="R-REluBi3tKabkP6cz9y-55" value="TIENE" style="shape=rhombus;perimeter=rhombusPerimeter;whiteSpace=wrap;html=1;align=center;" parent="1" vertex="1">
          <mxGeometry x="287.75" y="521.5" width="70" height="32" as="geometry" />
        </mxCell>
        <mxCell id="R-REluBi3tKabkP6cz9y-56" value="CREA" style="shape=rhombus;perimeter=rhombusPerimeter;whiteSpace=wrap;html=1;align=center;" parent="1" vertex="1">
          <mxGeometry x="230" y="406" width="70" height="32" as="geometry" />
        </mxCell>
        <mxCell id="R-REluBi3tKabkP6cz9y-57" value="" style="endArrow=none;html=1;rounded=0;" parent="1" source="R-REluBi3tKabkP6cz9y-56" target="R-REluBi3tKabkP6cz9y-2" edge="1">
          <mxGeometry relative="1" as="geometry">
            <mxPoint x="419" y="436" as="sourcePoint" />
            <mxPoint x="579" y="436" as="targetPoint" />
          </mxGeometry>
        </mxCell>
        <mxCell id="R-REluBi3tKabkP6cz9y-58" value="" style="endArrow=none;html=1;rounded=0;" parent="1" source="R-REluBi3tKabkP6cz9y-4" target="R-REluBi3tKabkP6cz9y-55" edge="1">
          <mxGeometry relative="1" as="geometry">
            <mxPoint x="419" y="436" as="sourcePoint" />
            <mxPoint x="579" y="436" as="targetPoint" />
          </mxGeometry>
        </mxCell>
        <mxCell id="3KhrSTuzuj51lLv87r42-1" value="ContraseÃ±a" style="ellipse;whiteSpace=wrap;html=1;align=center;" parent="1" vertex="1">
          <mxGeometry x="480.5" y="223" width="74.5" height="20" as="geometry" />
        </mxCell>
        <mxCell id="3KhrSTuzuj51lLv87r42-2" value="Email" style="ellipse;whiteSpace=wrap;html=1;align=center;" parent="1" vertex="1">
          <mxGeometry x="355" y="268" width="45" height="20" as="geometry" />
        </mxCell>
        <mxCell id="3KhrSTuzuj51lLv87r42-4" value="Nombre" style="ellipse;whiteSpace=wrap;html=1;align=center;" parent="1" vertex="1">
          <mxGeometry x="421.5" y="210" width="55" height="20" as="geometry" />
        </mxCell>
        <mxCell id="3KhrSTuzuj51lLv87r42-5" value="Telefono" style="ellipse;whiteSpace=wrap;html=1;align=center;" parent="1" vertex="1">
          <mxGeometry x="490.5" y="264" width="54.5" height="20" as="geometry" />
        </mxCell>
        <mxCell id="3KhrSTuzuj51lLv87r42-6" value="Fecha_nac" style="ellipse;whiteSpace=wrap;html=1;align=center;" parent="1" vertex="1">
          <mxGeometry x="463.75" y="296" width="70" height="20" as="geometry" />
        </mxCell>
        <mxCell id="3KhrSTuzuj51lLv87r42-7" value="Cargo" style="ellipse;whiteSpace=wrap;html=1;align=center;" parent="1" vertex="1">
          <mxGeometry x="305.25" y="364" width="45" height="20" as="geometry" />
        </mxCell>
        <mxCell id="3KhrSTuzuj51lLv87r42-8" value="Sueldo" style="ellipse;whiteSpace=wrap;html=1;align=center;" parent="1" vertex="1">
          <mxGeometry x="312.5" y="422" width="57.5" height="18" as="geometry" />
        </mxCell>
        <mxCell id="3KhrSTuzuj51lLv87r42-9" value="Nom_usuario" style="ellipse;whiteSpace=wrap;html=1;align=center;" parent="1" vertex="1">
          <mxGeometry x="502.5" y="349" width="80.75" height="20" as="geometry" />
        </mxCell>
        <mxCell id="3KhrSTuzuj51lLv87r42-11" value="&lt;u&gt;Cod_pedido&lt;/u&gt;" style="ellipse;whiteSpace=wrap;html=1;align=center;" parent="1" vertex="1">
          <mxGeometry x="664.25" y="418" width="73" height="20" as="geometry" />
        </mxCell>
        <mxCell id="3KhrSTuzuj51lLv87r42-12" value="Monto" style="ellipse;whiteSpace=wrap;html=1;align=center;" parent="1" vertex="1">
          <mxGeometry x="758.75" y="443.5" width="45" height="20" as="geometry" />
        </mxCell>
        <mxCell id="3KhrSTuzuj51lLv87r42-14" value="Tipo_pago" style="ellipse;whiteSpace=wrap;html=1;align=center;" parent="1" vertex="1">
          <mxGeometry x="760" y="493.5" width="65" height="20" as="geometry" />
        </mxCell>
        <mxCell id="3KhrSTuzuj51lLv87r42-15" value="Fecha_pedido" style="ellipse;whiteSpace=wrap;html=1;align=center;" parent="1" vertex="1">
          <mxGeometry x="690" y="536" width="80" height="20" as="geometry" />
        </mxCell>
        <mxCell id="3KhrSTuzuj51lLv87r42-16" value="Precio" style="ellipse;whiteSpace=wrap;html=1;align=center;" parent="1" vertex="1">
          <mxGeometry x="334.5" y="576" width="45" height="20" as="geometry" />
        </mxCell>
        <mxCell id="3KhrSTuzuj51lLv87r42-17" value="Nombre_pro" style="ellipse;whiteSpace=wrap;html=1;align=center;" parent="1" vertex="1">
          <mxGeometry x="473" y="567" width="76" height="20" as="geometry" />
        </mxCell>
        <mxCell id="3KhrSTuzuj51lLv87r42-18" value="&lt;u&gt;Cod_producto&lt;/u&gt;" style="ellipse;whiteSpace=wrap;html=1;align=center;" parent="1" vertex="1">
          <mxGeometry x="462.5" y="645" width="86" height="20" as="geometry" />
        </mxCell>
        <mxCell id="3KhrSTuzuj51lLv87r42-19" value="Fecha_ven" style="ellipse;whiteSpace=wrap;html=1;align=center;" parent="1" vertex="1">
          <mxGeometry x="318" y="629" width="66" height="20" as="geometry" />
        </mxCell>
        <mxCell id="3KhrSTuzuj51lLv87r42-20" value="Sabor" style="ellipse;whiteSpace=wrap;html=1;align=center;" parent="1" vertex="1">
          <mxGeometry x="464" y="545" width="45" height="20" as="geometry" />
        </mxCell>
        <mxCell id="3KhrSTuzuj51lLv87r42-21" value="Nom_ingredi" style="ellipse;whiteSpace=wrap;html=1;align=center;" parent="1" vertex="1">
          <mxGeometry x="-100" y="635" width="80" height="20" as="geometry" />
        </mxCell>
        <mxCell id="3KhrSTuzuj51lLv87r42-22" value="Fecha_ven_i" style="ellipse;whiteSpace=wrap;html=1;align=center;" parent="1" vertex="1">
          <mxGeometry x="-130.5" y="600" width="80" height="20" as="geometry" />
        </mxCell>
        <mxCell id="3KhrSTuzuj51lLv87r42-24" value="Cantidad" style="ellipse;whiteSpace=wrap;html=1;align=center;" parent="1" vertex="1">
          <mxGeometry x="-75" y="364" width="60" height="20" as="geometry" />
        </mxCell>
        <mxCell id="3KhrSTuzuj51lLv87r42-26" value="&lt;u&gt;Cod_ingre&lt;/u&gt;" style="ellipse;whiteSpace=wrap;html=1;align=center;" parent="1" vertex="1">
          <mxGeometry x="-20" y="649" width="60" height="20" as="geometry" />
        </mxCell>
        <mxCell id="3KhrSTuzuj51lLv87r42-29" value="Nom_prov" style="ellipse;whiteSpace=wrap;html=1;align=center;" parent="1" vertex="1">
          <mxGeometry x="-50.5" y="200" width="70" height="20" as="geometry" />
        </mxCell>
        <mxCell id="3KhrSTuzuj51lLv87r42-30" value="&lt;u&gt;Cod_prov&lt;/u&gt;" style="ellipse;whiteSpace=wrap;html=1;align=center;" parent="1" vertex="1">
          <mxGeometry x="-100" y="280" width="70" height="20" as="geometry" />
        </mxCell>
        <mxCell id="3KhrSTuzuj51lLv87r42-31" value="Email_prov" style="ellipse;whiteSpace=wrap;html=1;align=center;" parent="1" vertex="1">
          <mxGeometry x="37.5" y="200" width="70" height="20" as="geometry" />
        </mxCell>
        <mxCell id="3KhrSTuzuj51lLv87r42-32" value="Telefono_prov" style="ellipse;whiteSpace=wrap;html=1;align=center;" parent="1" vertex="1">
          <mxGeometry x="-120" y="218" width="80" height="20" as="geometry" />
        </mxCell>
        <mxCell id="3KhrSTuzuj51lLv87r42-33" value="Monto" style="ellipse;whiteSpace=wrap;html=1;align=center;" parent="1" vertex="1">
          <mxGeometry x="196.5" y="372" width="55" height="20" as="geometry" />
        </mxCell>
        <mxCell id="3KhrSTuzuj51lLv87r42-34" value="&lt;u&gt;Cod_Orden&lt;/u&gt;" style="ellipse;whiteSpace=wrap;html=1;align=center;" parent="1" vertex="1">
          <mxGeometry x="65" y="339" width="70" height="20" as="geometry" />
        </mxCell>
        <mxCell id="3KhrSTuzuj51lLv87r42-35" value="Descripcion" style="ellipse;whiteSpace=wrap;html=1;align=center;" parent="1" vertex="1">
          <mxGeometry x="210.25" y="294" width="65" height="24" as="geometry" />
        </mxCell>
        <mxCell id="3KhrSTuzuj51lLv87r42-36" value="Metodo_pago_ord" style="ellipse;whiteSpace=wrap;html=1;align=center;" parent="1" vertex="1">
          <mxGeometry x="65" y="294" width="107.5" height="24" as="geometry" />
        </mxCell>
        <mxCell id="3KhrSTuzuj51lLv87r42-47" value="INCLUYE" style="shape=rhombus;perimeter=rhombusPerimeter;whiteSpace=wrap;html=1;align=center;" parent="1" vertex="1">
          <mxGeometry x="571.25" y="577" width="80" height="37" as="geometry" />
        </mxCell>
        <mxCell id="3KhrSTuzuj51lLv87r42-50" value="" style="endArrow=none;html=1;rounded=0;" parent="1" source="3KhrSTuzuj51lLv87r42-47" target="R-REluBi3tKabkP6cz9y-9" edge="1">
          <mxGeometry relative="1" as="geometry">
            <mxPoint x="295.75" y="419.5" as="sourcePoint" />
            <mxPoint x="455.75" y="419.5" as="targetPoint" />
          </mxGeometry>
        </mxCell>
        <mxCell id="qfRJTtdcElop29Q3h5f1-17" value="&lt;u&gt;Cod_oferta&lt;/u&gt;" style="ellipse;whiteSpace=wrap;html=1;align=center;" parent="1" vertex="1">
          <mxGeometry x="170" y="536" width="66" height="20" as="geometry" />
        </mxCell>
        <mxCell id="qfRJTtdcElop29Q3h5f1-19" value="Descuento" style="ellipse;whiteSpace=wrap;html=1;align=center;" parent="1" vertex="1">
          <mxGeometry x="116.5" y="501.5" width="62.5" height="20" as="geometry" />
        </mxCell>
        <mxCell id="qfRJTtdcElop29Q3h5f1-20" value="Tiempo_inicio" style="ellipse;whiteSpace=wrap;html=1;align=center;" parent="1" vertex="1">
          <mxGeometry x="280" y="460" width="80" height="20" as="geometry" />
        </mxCell>
        <mxCell id="qfRJTtdcElop29Q3h5f1-22" value="&lt;u&gt;RUT&lt;/u&gt;" style="ellipse;whiteSpace=wrap;html=1;align=center;" parent="1" vertex="1">
          <mxGeometry x="361.88" y="221" width="46.25" height="27" as="geometry" />
        </mxCell>
        <mxCell id="qfRJTtdcElop29Q3h5f1-23" value="1,n" style="text;html=1;strokeColor=none;fillColor=none;align=center;verticalAlign=middle;whiteSpace=wrap;rounded=0;" parent="1" vertex="1">
          <mxGeometry x="19.5" y="273" width="30" height="20" as="geometry" />
        </mxCell>
        <mxCell id="qfRJTtdcElop29Q3h5f1-24" value="1,n" style="text;html=1;strokeColor=none;fillColor=none;align=center;verticalAlign=middle;whiteSpace=wrap;rounded=0;" parent="1" vertex="1">
          <mxGeometry x="15" y="568.5" width="30" height="20" as="geometry" />
        </mxCell>
        <mxCell id="qfRJTtdcElop29Q3h5f1-25" value="1,n" style="text;html=1;strokeColor=none;fillColor=none;align=center;verticalAlign=middle;whiteSpace=wrap;rounded=0;" parent="1" vertex="1">
          <mxGeometry x="55" y="569" width="30" height="20" as="geometry" />
        </mxCell>
        <mxCell id="qfRJTtdcElop29Q3h5f1-26" value="1,1" style="text;html=1;strokeColor=none;fillColor=none;align=center;verticalAlign=middle;whiteSpace=wrap;rounded=0;" parent="1" vertex="1">
          <mxGeometry x="179" y="359" width="30" height="20" as="geometry" />
        </mxCell>
        <mxCell id="qfRJTtdcElop29Q3h5f1-27" value="1,n" style="text;html=1;strokeColor=none;fillColor=none;align=center;verticalAlign=middle;whiteSpace=wrap;rounded=0;" parent="1" vertex="1">
          <mxGeometry x="170" y="309" width="30" height="20" as="geometry" />
        </mxCell>
        <mxCell id="qfRJTtdcElop29Q3h5f1-28" value="1,1" style="text;html=1;strokeColor=none;fillColor=none;align=center;verticalAlign=middle;whiteSpace=wrap;rounded=0;" parent="1" vertex="1">
          <mxGeometry x="55" y="238" width="30" height="20" as="geometry" />
        </mxCell>
        <mxCell id="qfRJTtdcElop29Q3h5f1-29" value="1,n" style="text;html=1;strokeColor=none;fillColor=none;align=center;verticalAlign=middle;whiteSpace=wrap;rounded=0;" parent="1" vertex="1">
          <mxGeometry x="227" y="339" width="30" height="20" as="geometry" />
        </mxCell>
        <mxCell id="qfRJTtdcElop29Q3h5f1-30" value="1,1" style="text;html=1;strokeColor=none;fillColor=none;align=center;verticalAlign=middle;whiteSpace=wrap;rounded=0;" parent="1" vertex="1">
          <mxGeometry x="370" y="359" width="30" height="20" as="geometry" />
        </mxCell>
        <mxCell id="qfRJTtdcElop29Q3h5f1-31" value="1,1" style="text;html=1;strokeColor=none;fillColor=none;align=center;verticalAlign=middle;whiteSpace=wrap;rounded=0;" parent="1" vertex="1">
          <mxGeometry x="373.25" y="407" width="30" height="20" as="geometry" />
        </mxCell>
        <mxCell id="qfRJTtdcElop29Q3h5f1-32" value="1,n" style="text;html=1;strokeColor=none;fillColor=none;align=center;verticalAlign=middle;whiteSpace=wrap;rounded=0;" parent="1" vertex="1">
          <mxGeometry x="432.5" y="565" width="30" height="20" as="geometry" />
        </mxCell>
        <mxCell id="qfRJTtdcElop29Q3h5f1-33" value="1,n" style="text;html=1;strokeColor=none;fillColor=none;align=center;verticalAlign=middle;whiteSpace=wrap;rounded=0;" parent="1" vertex="1">
          <mxGeometry x="236" y="472" width="30" height="20" as="geometry" />
        </mxCell>
        <mxCell id="qfRJTtdcElop29Q3h5f1-34" value="1,1" style="text;html=1;strokeColor=none;fillColor=none;align=center;verticalAlign=middle;whiteSpace=wrap;rounded=0;" parent="1" vertex="1">
          <mxGeometry x="330" y="385" width="30" height="20" as="geometry" />
        </mxCell>
        <mxCell id="qfRJTtdcElop29Q3h5f1-35" value="1,n" style="text;html=1;strokeColor=none;fillColor=none;align=center;verticalAlign=middle;whiteSpace=wrap;rounded=0;" parent="1" vertex="1">
          <mxGeometry x="640" y="464" width="30" height="20" as="geometry" />
        </mxCell>
        <mxCell id="qfRJTtdcElop29Q3h5f1-36" value="1,1" style="text;html=1;strokeColor=none;fillColor=none;align=center;verticalAlign=middle;whiteSpace=wrap;rounded=0;" parent="1" vertex="1">
          <mxGeometry x="480.5" y="409" width="30" height="20" as="geometry" />
        </mxCell>
        <mxCell id="qfRJTtdcElop29Q3h5f1-37" value="1,n" style="text;html=1;strokeColor=none;fillColor=none;align=center;verticalAlign=middle;whiteSpace=wrap;rounded=0;" parent="1" vertex="1">
          <mxGeometry x="475.75" y="600" width="30" height="20" as="geometry" />
        </mxCell>
        <mxCell id="qfRJTtdcElop29Q3h5f1-38" value="1,n" style="text;html=1;strokeColor=none;fillColor=none;align=center;verticalAlign=middle;whiteSpace=wrap;rounded=0;" parent="1" vertex="1">
          <mxGeometry x="651.64" y="498" width="30" height="20" as="geometry" />
        </mxCell>
        <mxCell id="qfRJTtdcElop29Q3h5f1-42" value="" style="endArrow=none;html=1;rounded=0;" parent="1" source="3KhrSTuzuj51lLv87r42-22" target="R-REluBi3tKabkP6cz9y-7" edge="1">
          <mxGeometry relative="1" as="geometry">
            <mxPoint x="-20" y="630" as="sourcePoint" />
            <mxPoint x="140" y="630" as="targetPoint" />
          </mxGeometry>
        </mxCell>
        <mxCell id="qfRJTtdcElop29Q3h5f1-45" value="" style="endArrow=none;html=1;rounded=0;" parent="1" source="3KhrSTuzuj51lLv87r42-21" target="R-REluBi3tKabkP6cz9y-7" edge="1">
          <mxGeometry relative="1" as="geometry">
            <mxPoint x="-20" y="630" as="sourcePoint" />
            <mxPoint x="140" y="630" as="targetPoint" />
          </mxGeometry>
        </mxCell>
        <mxCell id="qfRJTtdcElop29Q3h5f1-46" value="" style="endArrow=none;html=1;rounded=0;" parent="1" source="R-REluBi3tKabkP6cz9y-7" target="3KhrSTuzuj51lLv87r42-26" edge="1">
          <mxGeometry relative="1" as="geometry">
            <mxPoint x="-20" y="630" as="sourcePoint" />
            <mxPoint x="140" y="630" as="targetPoint" />
          </mxGeometry>
        </mxCell>
        <mxCell id="qfRJTtdcElop29Q3h5f1-51" value="" style="endArrow=none;html=1;rounded=0;" parent="1" source="3KhrSTuzuj51lLv87r42-19" target="R-REluBi3tKabkP6cz9y-4" edge="1">
          <mxGeometry relative="1" as="geometry">
            <mxPoint x="280" y="710" as="sourcePoint" />
            <mxPoint x="440" y="710" as="targetPoint" />
          </mxGeometry>
        </mxCell>
        <mxCell id="qfRJTtdcElop29Q3h5f1-52" value="" style="endArrow=none;html=1;rounded=0;" parent="1" source="3KhrSTuzuj51lLv87r42-18" target="R-REluBi3tKabkP6cz9y-4" edge="1">
          <mxGeometry relative="1" as="geometry">
            <mxPoint x="280" y="710" as="sourcePoint" />
            <mxPoint x="440" y="710" as="targetPoint" />
          </mxGeometry>
        </mxCell>
        <mxCell id="qfRJTtdcElop29Q3h5f1-53" value="" style="endArrow=none;html=1;rounded=0;" parent="1" source="R-REluBi3tKabkP6cz9y-4" target="3KhrSTuzuj51lLv87r42-16" edge="1">
          <mxGeometry relative="1" as="geometry">
            <mxPoint x="280" y="710" as="sourcePoint" />
            <mxPoint x="440" y="710" as="targetPoint" />
          </mxGeometry>
        </mxCell>
        <mxCell id="qfRJTtdcElop29Q3h5f1-54" value="" style="endArrow=none;html=1;rounded=0;" parent="1" source="R-REluBi3tKabkP6cz9y-4" target="3KhrSTuzuj51lLv87r42-20" edge="1">
          <mxGeometry relative="1" as="geometry">
            <mxPoint x="280" y="710" as="sourcePoint" />
            <mxPoint x="440" y="710" as="targetPoint" />
          </mxGeometry>
        </mxCell>
        <mxCell id="qfRJTtdcElop29Q3h5f1-55" value="" style="endArrow=none;html=1;rounded=0;" parent="1" source="3KhrSTuzuj51lLv87r42-17" target="R-REluBi3tKabkP6cz9y-4" edge="1">
          <mxGeometry relative="1" as="geometry">
            <mxPoint x="280" y="710" as="sourcePoint" />
            <mxPoint x="440" y="710" as="targetPoint" />
          </mxGeometry>
        </mxCell>
        <mxCell id="qfRJTtdcElop29Q3h5f1-56" value="" style="endArrow=none;html=1;rounded=0;" parent="1" source="qfRJTtdcElop29Q3h5f1-17" target="R-REluBi3tKabkP6cz9y-10" edge="1">
          <mxGeometry relative="1" as="geometry">
            <mxPoint x="280" y="710" as="sourcePoint" />
            <mxPoint x="440" y="710" as="targetPoint" />
          </mxGeometry>
        </mxCell>
        <mxCell id="qfRJTtdcElop29Q3h5f1-57" value="" style="endArrow=none;html=1;rounded=0;" parent="1" source="qfRJTtdcElop29Q3h5f1-19" target="R-REluBi3tKabkP6cz9y-10" edge="1">
          <mxGeometry relative="1" as="geometry">
            <mxPoint x="250" y="600" as="sourcePoint" />
            <mxPoint x="410" y="600" as="targetPoint" />
          </mxGeometry>
        </mxCell>
        <mxCell id="qfRJTtdcElop29Q3h5f1-58" value="" style="endArrow=none;html=1;rounded=0;" parent="1" source="R-REluBi3tKabkP6cz9y-10" target="qfRJTtdcElop29Q3h5f1-20" edge="1">
          <mxGeometry relative="1" as="geometry">
            <mxPoint x="190" y="520" as="sourcePoint" />
            <mxPoint x="350" y="520" as="targetPoint" />
          </mxGeometry>
        </mxCell>
        <mxCell id="qfRJTtdcElop29Q3h5f1-59" value="" style="endArrow=none;html=1;rounded=0;" parent="1" source="3KhrSTuzuj51lLv87r42-36" target="R-REluBi3tKabkP6cz9y-8" edge="1">
          <mxGeometry relative="1" as="geometry">
            <mxPoint x="140" y="360" as="sourcePoint" />
            <mxPoint x="300" y="360" as="targetPoint" />
          </mxGeometry>
        </mxCell>
        <mxCell id="qfRJTtdcElop29Q3h5f1-60" value="" style="endArrow=none;html=1;rounded=0;" parent="1" source="3KhrSTuzuj51lLv87r42-34" target="R-REluBi3tKabkP6cz9y-8" edge="1">
          <mxGeometry relative="1" as="geometry">
            <mxPoint x="140" y="360" as="sourcePoint" />
            <mxPoint x="300" y="360" as="targetPoint" />
          </mxGeometry>
        </mxCell>
        <mxCell id="qfRJTtdcElop29Q3h5f1-61" value="" style="endArrow=none;html=1;rounded=0;" parent="1" source="3KhrSTuzuj51lLv87r42-35" target="R-REluBi3tKabkP6cz9y-8" edge="1">
          <mxGeometry relative="1" as="geometry">
            <mxPoint x="140" y="360" as="sourcePoint" />
            <mxPoint x="300" y="360" as="targetPoint" />
          </mxGeometry>
        </mxCell>
        <mxCell id="qfRJTtdcElop29Q3h5f1-62" value="" style="endArrow=none;html=1;rounded=0;" parent="1" source="3KhrSTuzuj51lLv87r42-33" target="R-REluBi3tKabkP6cz9y-8" edge="1">
          <mxGeometry relative="1" as="geometry">
            <mxPoint x="140" y="360" as="sourcePoint" />
            <mxPoint x="300" y="360" as="targetPoint" />
          </mxGeometry>
        </mxCell>
        <mxCell id="qfRJTtdcElop29Q3h5f1-63" value="" style="endArrow=none;html=1;rounded=0;" parent="1" source="3KhrSTuzuj51lLv87r42-7" target="R-REluBi3tKabkP6cz9y-2" edge="1">
          <mxGeometry relative="1" as="geometry">
            <mxPoint x="250" y="390" as="sourcePoint" />
            <mxPoint x="410" y="390" as="targetPoint" />
          </mxGeometry>
        </mxCell>
        <mxCell id="qfRJTtdcElop29Q3h5f1-64" value="" style="endArrow=none;html=1;rounded=0;" parent="1" source="R-REluBi3tKabkP6cz9y-2" target="3KhrSTuzuj51lLv87r42-8" edge="1">
          <mxGeometry relative="1" as="geometry">
            <mxPoint x="250" y="390" as="sourcePoint" />
            <mxPoint x="410" y="390" as="targetPoint" />
          </mxGeometry>
        </mxCell>
        <mxCell id="qfRJTtdcElop29Q3h5f1-65" value="" style="endArrow=none;html=1;rounded=0;" parent="1" source="R-REluBi3tKabkP6cz9y-3" target="3KhrSTuzuj51lLv87r42-9" edge="1">
          <mxGeometry relative="1" as="geometry">
            <mxPoint x="250" y="390" as="sourcePoint" />
            <mxPoint x="410" y="390" as="targetPoint" />
          </mxGeometry>
        </mxCell>
        <mxCell id="qfRJTtdcElop29Q3h5f1-67" value="" style="endArrow=none;html=1;rounded=0;" parent="1" source="3KhrSTuzuj51lLv87r42-15" target="R-REluBi3tKabkP6cz9y-9" edge="1">
          <mxGeometry relative="1" as="geometry">
            <mxPoint x="508.75" y="500" as="sourcePoint" />
            <mxPoint x="668.75" y="500" as="targetPoint" />
          </mxGeometry>
        </mxCell>
        <mxCell id="qfRJTtdcElop29Q3h5f1-68" value="" style="endArrow=none;html=1;rounded=0;" parent="1" source="3KhrSTuzuj51lLv87r42-11" target="R-REluBi3tKabkP6cz9y-9" edge="1">
          <mxGeometry relative="1" as="geometry">
            <mxPoint x="508.75" y="500" as="sourcePoint" />
            <mxPoint x="668.75" y="500" as="targetPoint" />
          </mxGeometry>
        </mxCell>
        <mxCell id="qfRJTtdcElop29Q3h5f1-69" value="" style="endArrow=none;html=1;rounded=0;" parent="1" source="3KhrSTuzuj51lLv87r42-14" target="R-REluBi3tKabkP6cz9y-9" edge="1">
          <mxGeometry relative="1" as="geometry">
            <mxPoint x="508.75" y="500" as="sourcePoint" />
            <mxPoint x="668.75" y="500" as="targetPoint" />
          </mxGeometry>
        </mxCell>
        <mxCell id="qfRJTtdcElop29Q3h5f1-71" value="" style="endArrow=none;html=1;rounded=0;" parent="1" source="R-REluBi3tKabkP6cz9y-9" target="3KhrSTuzuj51lLv87r42-12" edge="1">
          <mxGeometry relative="1" as="geometry">
            <mxPoint x="508.75" y="500" as="sourcePoint" />
            <mxPoint x="668.75" y="500" as="targetPoint" />
          </mxGeometry>
        </mxCell>
        <mxCell id="qfRJTtdcElop29Q3h5f1-72" value="" style="endArrow=none;html=1;rounded=0;" parent="1" source="R-REluBi3tKabkP6cz9y-1" target="3KhrSTuzuj51lLv87r42-2" edge="1">
          <mxGeometry relative="1" as="geometry">
            <mxPoint x="420" y="283" as="sourcePoint" />
            <mxPoint x="580" y="283" as="targetPoint" />
          </mxGeometry>
        </mxCell>
        <mxCell id="qfRJTtdcElop29Q3h5f1-73" value="" style="endArrow=none;html=1;rounded=0;" parent="1" source="qfRJTtdcElop29Q3h5f1-22" target="R-REluBi3tKabkP6cz9y-1" edge="1">
          <mxGeometry relative="1" as="geometry">
            <mxPoint x="420" y="283" as="sourcePoint" />
            <mxPoint x="580" y="283" as="targetPoint" />
          </mxGeometry>
        </mxCell>
        <mxCell id="qfRJTtdcElop29Q3h5f1-75" value="" style="endArrow=none;html=1;rounded=0;" parent="1" source="R-REluBi3tKabkP6cz9y-1" target="3KhrSTuzuj51lLv87r42-4" edge="1">
          <mxGeometry relative="1" as="geometry">
            <mxPoint x="420" y="283" as="sourcePoint" />
            <mxPoint x="580" y="283" as="targetPoint" />
          </mxGeometry>
        </mxCell>
        <mxCell id="qfRJTtdcElop29Q3h5f1-76" value="" style="endArrow=none;html=1;rounded=0;" parent="1" source="R-REluBi3tKabkP6cz9y-1" target="3KhrSTuzuj51lLv87r42-6" edge="1">
          <mxGeometry relative="1" as="geometry">
            <mxPoint x="420" y="283" as="sourcePoint" />
            <mxPoint x="580" y="283" as="targetPoint" />
          </mxGeometry>
        </mxCell>
        <mxCell id="qfRJTtdcElop29Q3h5f1-77" value="" style="endArrow=none;html=1;rounded=0;" parent="1" source="R-REluBi3tKabkP6cz9y-1" target="3KhrSTuzuj51lLv87r42-5" edge="1">
          <mxGeometry relative="1" as="geometry">
            <mxPoint x="420" y="283" as="sourcePoint" />
            <mxPoint x="580" y="283" as="targetPoint" />
          </mxGeometry>
        </mxCell>
        <mxCell id="qfRJTtdcElop29Q3h5f1-78" value="" style="endArrow=none;html=1;rounded=0;" parent="1" source="R-REluBi3tKabkP6cz9y-1" target="3KhrSTuzuj51lLv87r42-1" edge="1">
          <mxGeometry relative="1" as="geometry">
            <mxPoint x="420" y="283" as="sourcePoint" />
            <mxPoint x="580" y="283" as="targetPoint" />
          </mxGeometry>
        </mxCell>
        <mxCell id="qfRJTtdcElop29Q3h5f1-79" value="Cantidad" style="ellipse;whiteSpace=wrap;html=1;align=center;" parent="1" vertex="1">
          <mxGeometry x="608.25" y="626" width="56" height="20" as="geometry" />
        </mxCell>
        <mxCell id="qfRJTtdcElop29Q3h5f1-80" value="" style="endArrow=none;html=1;rounded=0;" parent="1" source="qfRJTtdcElop29Q3h5f1-79" target="3KhrSTuzuj51lLv87r42-47" edge="1">
          <mxGeometry relative="1" as="geometry">
            <mxPoint x="378.38" y="608" as="sourcePoint" />
            <mxPoint x="538.38" y="608" as="targetPoint" />
          </mxGeometry>
        </mxCell>
        <mxCell id="qfRJTtdcElop29Q3h5f1-81" value="" style="endArrow=none;html=1;rounded=0;" parent="1" source="3KhrSTuzuj51lLv87r42-24" target="R-REluBi3tKabkP6cz9y-23" edge="1">
          <mxGeometry relative="1" as="geometry">
            <mxPoint x="130" y="470" as="sourcePoint" />
            <mxPoint x="290" y="470" as="targetPoint" />
          </mxGeometry>
        </mxCell>
        <mxCell id="qfRJTtdcElop29Q3h5f1-82" value="" style="endArrow=none;html=1;rounded=0;" parent="1" source="qfRJTtdcElop29Q3h5f1-83" target="R-REluBi3tKabkP6cz9y-41" edge="1">
          <mxGeometry relative="1" as="geometry">
            <mxPoint x="130" y="470" as="sourcePoint" />
            <mxPoint x="290" y="470" as="targetPoint" />
          </mxGeometry>
        </mxCell>
        <mxCell id="qfRJTtdcElop29Q3h5f1-83" value="Cantidad" style="ellipse;whiteSpace=wrap;html=1;align=center;" parent="1" vertex="1">
          <mxGeometry x="49.5" y="418" width="60" height="20" as="geometry" />
        </mxCell>
        <mxCell id="qfRJTtdcElop29Q3h5f1-84" value="TamaÃ±o" style="ellipse;whiteSpace=wrap;html=1;align=center;" parent="1" vertex="1">
          <mxGeometry x="334.5" y="695" width="56" height="20" as="geometry" />
        </mxCell>
        <mxCell id="qfRJTtdcElop29Q3h5f1-85" value="" style="endArrow=none;html=1;rounded=0;" parent="1" source="qfRJTtdcElop29Q3h5f1-84" target="R-REluBi3tKabkP6cz9y-12" edge="1">
          <mxGeometry relative="1" as="geometry">
            <mxPoint x="442" y="670" as="sourcePoint" />
            <mxPoint x="602" y="670" as="targetPoint" />
          </mxGeometry>
        </mxCell>
        <mxCell id="qfRJTtdcElop29Q3h5f1-86" value="Tipo" style="ellipse;whiteSpace=wrap;html=1;align=center;" parent="1" vertex="1">
          <mxGeometry x="533.75" y="715" width="56" height="20" as="geometry" />
        </mxCell>
        <mxCell id="qfRJTtdcElop29Q3h5f1-87" value="" style="endArrow=none;html=1;rounded=0;" parent="1" source="qfRJTtdcElop29Q3h5f1-86" target="R-REluBi3tKabkP6cz9y-13" edge="1">
          <mxGeometry relative="1" as="geometry">
            <mxPoint x="272" y="660" as="sourcePoint" />
            <mxPoint x="432" y="660" as="targetPoint" />
          </mxGeometry>
        </mxCell>
        <mxCell id="qfRJTtdcElop29Q3h5f1-88" value="Stock" style="ellipse;whiteSpace=wrap;html=1;align=center;" parent="1" vertex="1">
          <mxGeometry x="367" y="649" width="66" height="20" as="geometry" />
        </mxCell>
        <mxCell id="qfRJTtdcElop29Q3h5f1-89" value="" style="endArrow=none;html=1;rounded=0;" parent="1" source="qfRJTtdcElop29Q3h5f1-88" target="R-REluBi3tKabkP6cz9y-4" edge="1">
          <mxGeometry relative="1" as="geometry">
            <mxPoint x="130" y="640" as="sourcePoint" />
            <mxPoint x="290" y="640" as="targetPoint" />
          </mxGeometry>
        </mxCell>
        <mxCell id="qfRJTtdcElop29Q3h5f1-112" value="" style="endArrow=none;html=1;rounded=0;" parent="1" source="3KhrSTuzuj51lLv87r42-29" target="R-REluBi3tKabkP6cz9y-6" edge="1">
          <mxGeometry relative="1" as="geometry">
            <mxPoint x="140" y="293" as="sourcePoint" />
            <mxPoint x="300" y="293" as="targetPoint" />
          </mxGeometry>
        </mxCell>
        <mxCell id="qfRJTtdcElop29Q3h5f1-113" value="" style="endArrow=none;html=1;rounded=0;" parent="1" source="3KhrSTuzuj51lLv87r42-32" target="R-REluBi3tKabkP6cz9y-6" edge="1">
          <mxGeometry relative="1" as="geometry">
            <mxPoint x="140" y="293" as="sourcePoint" />
            <mxPoint x="300" y="293" as="targetPoint" />
          </mxGeometry>
        </mxCell>
        <mxCell id="qfRJTtdcElop29Q3h5f1-114" value="" style="endArrow=none;html=1;rounded=0;" parent="1" source="3KhrSTuzuj51lLv87r42-30" target="R-REluBi3tKabkP6cz9y-6" edge="1">
          <mxGeometry relative="1" as="geometry">
            <mxPoint x="140" y="293" as="sourcePoint" />
            <mxPoint x="300" y="293" as="targetPoint" />
          </mxGeometry>
        </mxCell>
        <mxCell id="qfRJTtdcElop29Q3h5f1-115" value="" style="endArrow=none;html=1;rounded=0;" parent="1" source="3KhrSTuzuj51lLv87r42-31" target="R-REluBi3tKabkP6cz9y-6" edge="1">
          <mxGeometry relative="1" as="geometry">
            <mxPoint x="140" y="293" as="sourcePoint" />
            <mxPoint x="300" y="293" as="targetPoint" />
          </mxGeometry>
        </mxCell>
        <mxCell id="qfRJTtdcElop29Q3h5f1-116" value="Descripcion" style="ellipse;whiteSpace=wrap;html=1;align=center;" parent="1" vertex="1">
          <mxGeometry x="156" y="456" width="80" height="20" as="geometry" />
        </mxCell>
        <mxCell id="qfRJTtdcElop29Q3h5f1-117" value="" style="endArrow=none;html=1;rounded=0;" parent="1" source="qfRJTtdcElop29Q3h5f1-116" target="R-REluBi3tKabkP6cz9y-10" edge="1">
          <mxGeometry relative="1" as="geometry">
            <mxPoint x="240" y="440" as="sourcePoint" />
            <mxPoint x="400" y="440" as="targetPoint" />
          </mxGeometry>
        </mxCell>
        <mxCell id="qfRJTtdcElop29Q3h5f1-118" value="Tiempo_fin" style="ellipse;whiteSpace=wrap;html=1;align=center;" parent="1" vertex="1">
          <mxGeometry x="280" y="493.5" width="80" height="20" as="geometry" />
        </mxCell>
        <mxCell id="qfRJTtdcElop29Q3h5f1-119" value="" style="endArrow=none;html=1;rounded=0;" parent="1" source="R-REluBi3tKabkP6cz9y-10" target="qfRJTtdcElop29Q3h5f1-118" edge="1">
          <mxGeometry relative="1" as="geometry">
            <mxPoint x="240" y="440" as="sourcePoint" />
            <mxPoint x="400" y="440" as="targetPoint" />
          </mxGeometry>
        </mxCell>
        <mxCell id="qfRJTtdcElop29Q3h5f1-120" value="1,n" style="text;html=1;strokeColor=none;fillColor=none;align=center;verticalAlign=middle;whiteSpace=wrap;rounded=0;" parent="1" vertex="1">
          <mxGeometry x="60" y="601.5" width="30" height="20" as="geometry" />
        </mxCell>
        <mxCell id="qfRJTtdcElop29Q3h5f1-121" value="1,n" style="text;html=1;strokeColor=none;fillColor=none;align=center;verticalAlign=middle;whiteSpace=wrap;rounded=0;" parent="1" vertex="1">
          <mxGeometry x="370" y="600" width="30" height="20" as="geometry" />
        </mxCell>
        <mxCell id="qfRJTtdcElop29Q3h5f1-122" value="1,n" style="text;html=1;strokeColor=none;fillColor=none;align=center;verticalAlign=middle;whiteSpace=wrap;rounded=0;" parent="1" vertex="1">
          <mxGeometry x="249" y="518" width="30" height="20" as="geometry" />
        </mxCell>
        <mxCell id="qfRJTtdcElop29Q3h5f1-123" value="1,n" style="text;html=1;strokeColor=none;fillColor=none;align=center;verticalAlign=middle;whiteSpace=wrap;rounded=0;" parent="1" vertex="1">
          <mxGeometry x="375.75" y="553.5" width="30" height="20" as="geometry" />
        </mxCell>
        <mxCell id="qfRJTtdcElop29Q3h5f1-126" value="Stock" style="ellipse;whiteSpace=wrap;html=1;align=center;" parent="1" vertex="1">
          <mxGeometry x="50" y="645" width="45" height="20" as="geometry" />
        </mxCell>
        <mxCell id="qfRJTtdcElop29Q3h5f1-127" value="" style="endArrow=none;html=1;rounded=0;" parent="1" source="R-REluBi3tKabkP6cz9y-7" target="qfRJTtdcElop29Q3h5f1-126" edge="1">
          <mxGeometry relative="1" as="geometry">
            <mxPoint x="150" y="540" as="sourcePoint" />
            <mxPoint x="310" y="540" as="targetPoint" />
          </mxGeometry>
        </mxCell>
        <mxCell id="qfRJTtdcElop29Q3h5f1-128" value="Precio_ingre" style="ellipse;whiteSpace=wrap;html=1;align=center;" parent="1" vertex="1">
          <mxGeometry x="-110" y="565" width="70" height="20" as="geometry" />
        </mxCell>
        <mxCell id="qfRJTtdcElop29Q3h5f1-129" value="" style="endArrow=none;html=1;rounded=0;" parent="1" source="qfRJTtdcElop29Q3h5f1-128" target="R-REluBi3tKabkP6cz9y-7" edge="1">
          <mxGeometry relative="1" as="geometry">
            <mxPoint x="150" y="540" as="sourcePoint" />
            <mxPoint x="310" y="540" as="targetPoint" />
          </mxGeometry>
        </mxCell>
        <mxCell id="qfRJTtdcElop29Q3h5f1-132" value="Cant_compras" style="ellipse;whiteSpace=wrap;html=1;align=center;" parent="1" vertex="1">
          <mxGeometry x="558.5" y="398" width="80.75" height="20" as="geometry" />
        </mxCell>
        <mxCell id="qfRJTtdcElop29Q3h5f1-133" value="" style="endArrow=none;html=1;rounded=0;" parent="1" source="R-REluBi3tKabkP6cz9y-3" target="qfRJTtdcElop29Q3h5f1-132" edge="1">
          <mxGeometry relative="1" as="geometry">
            <mxPoint x="420" y="470" as="sourcePoint" />
            <mxPoint x="580" y="470" as="targetPoint" />
          </mxGeometry>
        </mxCell>
        <mxCell id="qfRJTtdcElop29Q3h5f1-136" value="Ubicacion" style="ellipse;whiteSpace=wrap;html=1;align=center;" parent="1" vertex="1">
          <mxGeometry x="-130" y="248" width="80" height="20" as="geometry" />
        </mxCell>
        <mxCell id="qfRJTtdcElop29Q3h5f1-138" value="" style="endArrow=none;html=1;rounded=0;" parent="1" source="qfRJTtdcElop29Q3h5f1-136" target="R-REluBi3tKabkP6cz9y-6" edge="1">
          <mxGeometry relative="1" as="geometry">
            <mxPoint x="420" y="503" as="sourcePoint" />
            <mxPoint x="580" y="503" as="targetPoint" />
          </mxGeometry>
        </mxCell>
        <mxCell id="qfRJTtdcElop29Q3h5f1-145" value="Fecha_ord" style="ellipse;whiteSpace=wrap;html=1;align=center;" parent="1" vertex="1">
          <mxGeometry x="72.25" y="372" width="83.75" height="20" as="geometry" />
        </mxCell>
        <mxCell id="qfRJTtdcElop29Q3h5f1-147" value="" style="endArrow=none;html=1;rounded=0;" parent="1" source="R-REluBi3tKabkP6cz9y-8" target="qfRJTtdcElop29Q3h5f1-145" edge="1">
          <mxGeometry relative="1" as="geometry">
            <mxPoint x="300" y="450" as="sourcePoint" />
            <mxPoint x="460" y="450" as="targetPoint" />
          </mxGeometry>
        </mxCell>
        <mxCell id="P4dxirst5hwJM_ejnUYU-3" value="" style="endArrow=none;html=1;rounded=0;" parent="1" source="R-REluBi3tKabkP6cz9y-4" target="3KhrSTuzuj51lLv87r42-47" edge="1">
          <mxGeometry relative="1" as="geometry">
            <mxPoint x="350" y="520" as="sourcePoint" />
            <mxPoint x="510" y="520" as="targetPoint" />
          </mxGeometry>
        </mxCell>
      </root>
    </mxGraphModel>
  </diagram>
</mxfile>
